<svg width="845" height="555" viewBox="0 0 845 555" fill="none" xmlns="http://www.w3.org/2000/svg">
<path d="M533.201 553H484.064C482.703 553 481.67 551.63 481.623 550.269C481.525 547.419 480.033 543.148 472.454 541.548C462.146 539.372 438.776 531.873 433.046 530.017C432.268 529.764 431.416 530.006 430.841 530.589C428.635 532.823 422.671 538.063 415.247 538.063C405.81 538.063 405.221 524.619 395.784 529.598C388.253 533.572 386.733 546.111 386.426 551.011C386.357 552.113 385.456 553 384.351 553C369.434 553 350 553 339.167 553C327.843 553 326.192 538.561 326.192 543.54V486.83C326.192 484.906 328.644 484.092 329.795 485.635L335.161 492.829C335.764 493.639 336.877 493.871 337.754 493.371L357.693 482.009C358.788 481.385 359.04 479.915 358.215 478.962L326.563 442.396C326.32 442.115 326.004 441.908 325.65 441.796L302.263 434.45C301.415 434.183 300.509 434.521 300.185 435.349C298.782 438.931 297.029 445.95 284.318 445.95C271.358 445.95 270.715 438.653 269.096 435.143C268.754 434.403 267.892 434.179 267.124 434.451L246.498 441.784C246.161 441.903 245.862 442.111 245.633 442.386L214.951 479.121C214.196 480.024 214.381 481.38 215.349 482.049L231.611 493.282C232.417 493.839 233.507 493.73 234.187 493.025L242.603 484.305C243.845 483.019 246.019 483.879 246.038 485.666C246.224 503.126 246.412 533.045 245.983 543.54C245.698 550.51 241.855 553 233.008 553H4C2.89543 553 2 552.105 2 551V3.99999C2 2.89542 2.89543 2 4 2H841.5C842.605 2 843.5 2.89543 843.5 4V551C843.5 552.105 842.605 553 841.5 553H627.157M533.201 553H572.419C573.297 553 574.07 552.433 574.333 551.596C575.37 548.297 578.059 539.858 580.382 533.582M533.201 553V492.753M627.157 553H590.02C589.189 553 588.446 552.491 588.146 551.716C586.846 548.359 583.232 539.195 580.382 533.582M627.157 553V492.753M580.382 533.582L587.593 529.668C588.238 529.318 588.639 528.644 588.639 527.91V492.753M533.201 492.753V482.803C533.201 481.699 534.096 480.803 535.201 480.803H566.228M533.201 492.753H566.228M627.157 492.753V482.803C627.157 481.699 626.262 480.803 625.157 480.803H595.716M627.157 492.753H595.716M566.228 480.803V492.753M566.228 480.803H595.716M566.228 492.753H588.639M595.716 480.803V492.753M595.716 492.753H588.639" stroke="white" stroke-width="3" stroke-linecap="round"/>
</svg>
